<?xml version="1.0" encoding="UTF-8" standalone="no"?>
<!-- Created with Inkscape (http://www.inkscape.org/) -->

<svg
   version="1.1"
   id="svg1"
   width="1325"
   height="819.44446"
   viewBox="0 0 1325 819.44446"
   sodipodi:docname="thermal-network-logo"
   inkscape:version="1.4.2 (ebf0e940, 2025-05-08)"
   xmlns:inkscape="http://www.inkscape.org/namespaces/inkscape"
   xmlns:sodipodi="http://sodipodi.sourceforge.net/DTD/sodipodi-0.dtd"
   xmlns="http://www.w3.org/2000/svg"
   xmlns:svg="http://www.w3.org/2000/svg">
  <defs
     id="defs1" />
  <sodipodi:namedview
     id="namedview1"
     pagecolor="#ffffff"
     bordercolor="#cccccc"
     borderopacity="1"
     inkscape:showpageshadow="0"
     inkscape:pageopacity="1"
     inkscape:pagecheckerboard="0"
     inkscape:deskcolor="#d1d1d1"
     inkscape:zoom="0.36"
     inkscape:cx="763.88889"
     inkscape:cy="191.66667"
     inkscape:window-width="1920"
     inkscape:window-height="1027"
     inkscape:window-x="1495"
     inkscape:window-y="25"
     inkscape:window-maximized="0"
     inkscape:current-layer="g1" />
  <g
     inkscape:groupmode="layer"
     inkscape:label="Image"
     id="g1"
     transform="translate(-388.88889,-833.33331)">
    <rect
       style="fill:#ffffff"
       id="rect17"
       width="1325"
       height="819.44446"
       x="388.88889"
       y="833.33331" />
    <g
       id="g17"
       transform="translate(27.138885,-0.4249656)">
      <path
         style="fill:#000000"
         d="m 892.89343,1159.6256 c -12.04327,-4.2514 -19.96837,-11.2512 -24.99668,-22.0782 -3.9976,-8.6077 -4.88063,-16.0664 -4.8892,-41.2974 L 863,1074 h -35.6 -87.6 l -3.4,-3.4 c -2.15576,-2.1558 -3.4,-4.3696 -3.4,-6.0497 0,-3.4169 2.48688,-8.2053 4.94461,-9.5207 1.27654,-0.6831 26.96793,-1.0325 84.23965,-1.0383 47.47366,0 32.64779,-0.2889 35.49807,-0.6313 l 5.18233,-0.6225 0.36167,-28.6188 c 0.40811,-32.29257 0.81231,-34.52575 8.25393,-45.60146 7.37322,-10.97389 18.12726,-16.93294 33.51974,-18.57401 4.77275,-0.50885 63.7509,-0.77644 134.5,-0.61023 l 126,0.29599 6.4543,2.26497 c 15.672,5.49962 26.1076,17.472 29.6027,33.96206 0.9995,4.71538 1.4133,14.12568 1.4256,32.41848 l 0.017,25.7745 69.9174,-0.2745 c 35.1172,-0.1379 35.9806,-0.2278 38.75,1.8213 4.0785,3.0177 5.1943,8.244 2.6794,12.5502 -3.3859,5.7973 -3.5723,5.8311 -42.0968,5.8393 L 1203,1074 l -0.02,21.25 c -0.024,26.1513 -0.9172,33.0609 -5.4744,42.369 -5.5838,11.4046 -13.4392,18.316 -25.3955,22.3439 -5.9652,2.0095 -7.8542,2.0368 -139.3288,2.016 L 899.5,1161.9578 Z M 924,1061 v -81 h -9.3185 c -11.987,0 -18.13242,1.80812 -22.83876,6.71968 C 884.00697,994.89712 884.5,989.90953 884.5,1061 v 63.5 l 2.84467,5.1319 c 5.17997,9.345 11.29691,12.1938 26.40533,12.2976 L 924,1142 Z m 240.2247,79.9544 c 5.5683,-1.5464 11.8455,-6.8498 14.7207,-12.4369 l 2.5546,-4.9641 V 1061.5267 999.5 l -2.8723,-5.84956 c -3.0694,-6.25118 -8.5515,-10.70109 -15.5932,-12.65736 -2.2113,-0.61433 -43.6846,-0.98401 -110.7845,-0.9875 L 945,980 v 81 81 l 107.75,-0.01 c 71.1416,0 109.0155,-0.357 111.4747,-1.04 z"
         id="path16"
         sodipodi:nodetypes="ssscccssssscsssscssccssssccssscsccssscsscccscccssscccccc" />
      <path
         style="fill:#000000"
         d="m 1391.2424,1314.7604 0.2576,-62.2604 12.25,-0.2808 12.25,-0.2808 v 50.5168 50.5167 l 31.75,0.2641 31.75,0.264 v 11.5 11.5 l -44.2576,0.2604 -44.2575,0.2604 z"
         id="path15" />
      <path
         style="fill:#000000"
         d="m 1238.8017,1376.4684 c -0.3237,-0.3237 0.013,-1.799 0.7474,-3.2785 0.7347,-1.4794 6.3556,-14.6149 12.4908,-29.1899 21.0513,-50.0099 23.8369,-56.539 31.7861,-74.5 l 7.9664,-18 11.448,-0.2804 11.4481,-0.2804 5.067,11.7804 c 2.7868,6.4792 14.8122,34.2804 26.7231,61.7804 11.9109,27.5 21.904,50.5755 22.2069,51.279 0.4352,1.0107 -2.3241,1.2205 -13.1545,1 l -13.7053,-0.279 -5.6105,-13.7655 -5.6105,-13.7654 -27.523,0.2654 -27.523,0.2655 -5.5938,13.5 -5.5938,13.5 -12.4905,0.2784 c -6.8697,0.1532 -12.7552,0.014 -13.0789,-0.31 z m 81.7659,-52.2554 c -0.312,-0.9829 -4.3552,-10.7322 -8.9849,-21.6652 l -8.4178,-19.8782 -1.6572,3.9152 c -0.9114,2.1534 -4.0649,9.7652 -7.0077,16.9152 -2.9428,7.15 -6.2682,15.1375 -7.3897,17.75 l -2.0392,4.75 h 18.0318 c 16.8605,0 17.995,-0.1161 17.4647,-1.787 z"
         id="path14" />
      <path
         style="fill:#000000"
         d="M 1089,1314.3558 V 1252 h 13.9394 13.9395 l 5.3615,8.75 c 2.9488,4.8125 10.7386,17.5933 17.3105,28.4018 6.572,10.8085 12.2195,19.4859 12.55,19.2831 0.3306,-0.2028 8.1912,-12.9836 17.4682,-28.4018 L 1186.4362,1252 H 1200.7181 1215 v 62.5 62.5 h -12.4891 -12.4892 l -0.2608,-42.25 -0.2609,-42.25 -9.1125,14.5 c -21.7573,34.6207 -28.5055,44.3162 -29.8393,42.8714 -0.6963,-0.7543 -6.5694,-9.6964 -13.0514,-19.8714 -6.4819,-10.175 -14.3079,-22.325 -17.391,-27 l -5.6058,-8.5 -0.261,41.177 -0.2611,41.177 -12.4889,-0.071 -12.489,-0.071 z"
         id="path13" />
      <path
         style="fill:#000000"
         d="M 957.66667,1376.333 C 957.3,1375.9667 957,1347.8417 957,1313.8333 V 1252 l 31.75,0.017 c 34.7358,0.019 40.6624,0.6746 50.7514,5.6147 7.5308,3.6875 15.656,12.507 18.5021,20.0833 4.3096,11.4719 3.5211,25.4556 -2.0513,36.3784 -3.0053,5.8907 -9.6932,12.1653 -16.2961,15.289 -3.751,1.7745 -5.4787,3.1207 -5.02,3.9115 1.8939,3.2647 19.7561,30.0947 24.2706,36.4557 l 5.1454,7.25 h -15.0664 -15.0665 l -13.4753,-20.5307 -13.4754,-20.5306 -12.23425,0.2806 -12.23425,0.2807 -0.27071,20.25 -0.2707,20.25 h -11.81263 c -6.49694,0 -12.11263,-0.3 -12.47929,-0.6667 z M 1022.5,1312.0629 c 3.6464,-1.4466 8.1804,-5.6093 10.0893,-9.2632 1.8399,-3.5219 1.8092,-13.1283 -0.053,-16.7302 -2.0634,-3.9902 -6.9512,-7.835 -11.5268,-9.067 -2.2296,-0.6004 -11.3113,-0.9329 -21.20452,-0.7763 L 982.5,1276.5 l 0.0436,4 c 0.024,2.2 0.13647,10.6973 0.25,18.8829 l 0.20643,14.8829 18.24997,-0.5064 c 10.5126,-0.2917 19.5219,-1.011 21.25,-1.6965 z"
         id="path12" />
      <path
         style="fill:#000000"
         d="m 834.80367,1376.25 c -0.1729,-0.4125 -0.31196,-28.425 -0.30902,-62.25 l 0.005,-61.5 47.25,-0.2598 47.25,-0.2598 V 1263.9902 1276 h -35 -35 v 12.9853 12.9854 l 30.25,0.2646 30.25,0.2647 v 11.5 11.5 l -30.25,0.2647 -30.25,0.2646 V 1339.5147 1353 h 35 35 v 12 12 h -46.94098 c -25.81754,0 -47.08245,-0.3375 -47.25535,-0.75 z"
         id="path11" />
      <path
         style="fill:#000000"
         d="m 697.3631,1375.5 c -0.20998,-0.55 -0.26507,-28.45 -0.12244,-62 l 0.25934,-61 11.92046,-0.2832 c 8.85111,-0.2103 12.13899,0.047 12.76917,1 0.4668,0.7058 0.77877,11.8582 0.69326,24.7832 l -0.15546,23.5 h 25.68787 25.68786 l 0.19842,-24.5 0.19842,-24.5 12.25,-0.2808 12.25,-0.2808 0.21154,57.0308 c 0.11634,31.3669 0.22884,59.3933 0.25,62.2808 l 0.0385,5.25 H 787 774.5 l -0.26721,-25.2668 -0.2672,-25.2669 -25.53393,0.2669 -25.53394,0.2668 -0.19886,24.8472 -0.19886,24.8472 -12.37756,0.1528 c -7.47494,0.092 -12.52878,-0.2433 -12.75934,-0.8472 z"
         id="path10" />
      <path
         style="fill:#000000"
         d="M 607,1326.5299 V 1276 h -19 -19 v -12 -12 h 51.5 51.5 v 11.9789 11.9788 l -19.68302,0.2712 -19.68303,0.2711 -0.0715,50 -0.0715,50 -12.7455,0.2799 -12.7455,0.2799 z"
         id="path9" />
      <path
         style="fill:#000000"
         d="m 1243,1493 v -34 h 4 4 l 0.01,19.25 0.01,19.25 19.1893,-19.25 19.1893,-19.25 5.0536,0.051 5.0536,0.051 -14.3847,13.8261 c -10.4061,10.002 -14.1513,14.2058 -13.5406,15.1986 1.157,1.8813 20.8493,27.2887 25.5859,33.0113 2.1116,2.5513 3.8394,4.9138 3.8394,5.25 0,0.3362 -2.2086,0.6112 -4.9081,0.6112 h -4.9081 l -12.6547,-17 c -6.9601,-9.35 -12.8914,-17 -13.1805,-17 -0.2892,0 -3.6359,3.2553 -7.4372,7.2339 l -6.9114,7.2339 v 9.7661 9.7661 h -4 -4 z"
         id="path7" />
      <path
         style="fill:#000000"
         d="M 1166,1493.0634 V 1459 h 16.8185 c 19.4669,0 24.9712,1.1514 30.3151,6.3413 5.9365,5.7654 7.5287,15.5934 3.7806,23.336 -2.2752,4.6998 -5.8422,7.7101 -11.4275,9.6437 l -3.5994,1.2462 8.3064,11.7825 c 4.5684,6.4804 8.9237,12.6527 9.6783,13.7164 1.3042,1.8385 1.1201,1.9339 -3.7324,1.9339 h -5.1042 L 1202,1513.5 1192.9646,1500 h -9.9533 -9.9532 l -0.2791,13.25 -0.279,13.25 -3.25,0.3134 -3.25,0.3133 z m 38,-1.815 c 9.4268,-4.7092 8.7998,-18.4635 -1.0711,-23.4968 -2.753,-1.4039 -6.0406,-1.7488 -16.6789,-1.75 H 1173 v 13.5 13.5 h 13.75 c 11.0872,0 14.4278,-0.3401 17.25,-1.75 z"
         id="path6" />
      <path
         style="fill:#000000"
         d="M 980.5103,1525.8108 C 980.2498,1525.0899 978.4104,1520 976.4227,1514.5 971.3857,1500.5623 958,1460.8416 958,1459.8324 c 0,-0.4578 1.7502,-0.8324 3.8893,-0.8324 h 3.8893 l 9.2709,27.5398 c 5.099,15.1468 9.5897,27.1843 9.9792,26.75 0.3896,-0.4344 4.8917,-12.8273 10.0047,-27.5398 l 9.2963,-26.75 h 3.0897 3.0897 l 8.9019,26.25 c 4.896,14.4375 9.2196,26.6157 9.6081,27.0626 0.3884,0.447 4.6076,-10.803 9.3759,-25 4.7684,-14.1969 8.8661,-26.3751 9.106,-27.0626 0.2542,-0.7284 2.1632,-1.25 4.5746,-1.25 2.8812,0 4.0033,0.3797 3.6938,1.25 -0.2446,0.6875 -5.5802,16.0004 -11.857,34.0288 l -11.4124,32.7787 -3.4408,-0.2787 -3.4409,-0.2788 -9.0591,-26.7208 c -6.071,-17.9068 -9.2984,-26.1531 -9.7844,-25 -0.3989,0.9465 -4.7417,12.9708 -9.6506,26.7208 l -8.9254,25 -3.6075,0.3108 c -2.3038,0.1986 -3.7785,-0.1628 -4.081,-1 z"
         id="path5" />
      <path
         style="fill:#000000"
         d="M 913.6667,1526.3333 C 913.3,1525.9667 913,1512.4667 913,1496.3333 V 1467 h -10.9267 c -11.7915,0 -12.2396,-0.2291 -11.2454,-5.75 l 0.4053,-2.25 H 917.1166 943 v 4 4 h -11 -11 v 30 30 h -3.3333 c -1.8334,0 -3.6334,-0.3 -4,-0.6667 z"
         id="path4" />
      <path
         style="fill:#000000"
         d="m 825,1493.0257 v -34.0613 l 24.25,0.2678 24.25,0.2678 0.3118,3.2295 0.3119,3.2295 -20.8119,0.2705 -20.8118,0.2705 -0.2941,9 c -0.481,14.7231 -2.1795,13.5 18.7458,13.5 16.5828,0 17.9574,0.1381 18.5036,1.8591 0.3245,1.0225 0.3067,2.5975 -0.04,3.5 -0.5512,1.4363 -2.8532,1.6409 -18.4637,1.6409 -9.8087,0 -18.0276,0.3375 -18.2642,0.75 -0.2366,0.4125 -0.2041,5.5875 0.072,11.5 l 0.5023,10.75 h 20.3099 c 12.7837,0 20.5445,0.3796 20.943,1.0244 0.3482,0.5634 0.3485,2.3203 6e-4,3.9041 l -0.6325,2.8797 -24.4416,0.1394 -24.4416,0.1393 z"
         id="path3" />
      <path
         style="fill:#000000"
         d="M 740.6667,1526.3333 C 740.3,1525.9667 740,1510.6667 740,1492.3333 V 1459 h 3.8264 c 3.7198,0 4.1007,0.355 13.6804,12.75 23.2132,30.0352 30.884,39.2358 31.6777,37.9953 0.4383,-0.6849 0.6885,-12.2703 0.5562,-25.7453 l -0.2407,-24.5 3.75,-0.3104 3.75,-0.3103 V 1492.9396 1527 l -3.25,-0.01 c -2.6256,-0.01 -3.7303,-0.7168 -5.75,-3.7019 -1.375,-2.0323 -7.904,-10.4667 -14.5089,-18.7432 -6.6048,-8.2764 -14.9298,-18.8338 -18.5,-23.4608 l -6.4911,-8.4127 -0.2661,27.1627 -0.266,27.1627 h -3.3173 c -1.8245,0 -3.6173,-0.3 -3.9839,-0.6667 z"
         id="path2" />
      <path
         style="fill:#000000"
         d="m 1097.9506,1526.7015 c -12.6139,-3.5781 -21.7175,-14.2227 -23.912,-27.9597 -2.5357,-15.8728 5.1457,-31.1836 18.8749,-37.622 4.7308,-2.2185 6.965,-2.6198 14.5865,-2.6198 7.6073,0 9.8511,0.4015 14.5,2.5943 6.5052,3.0685 13.071,9.3552 15.9226,15.2458 8.6969,17.9653 1.3015,40.3497 -15.8779,48.0593 -7.2368,3.2477 -17.3531,4.2143 -24.0941,2.3021 z m 20.8734,-8.6313 c 9.1067,-4.6944 14.3982,-14.0918 14.3982,-25.5702 0,-8.8628 -2.3361,-14.6719 -8.182,-20.345 -7.2838,-7.0688 -20.2351,-9.2083 -28.8314,-4.7629 -4.4833,2.3183 -9.7148,8.0367 -12.2916,13.4354 -3.1008,6.4965 -3.1224,17.8038 -0.047,24.2461 6.4081,13.4212 22.513,19.4094 34.9533,12.9966 z"
         id="path1" />
    </g>
  </g>
</svg>
